<?xml version="1.0" encoding="utf-8"?>
<!-- Generator: Adobe Illustrator 16.0.3, SVG Export Plug-In . SVG Version: 6.00 Build 0)  -->
<!DOCTYPE svg PUBLIC "-//W3C//DTD SVG 1.1//EN" "http://www.w3.org/Graphics/SVG/1.1/DTD/svg11.dtd">
<svg version="1.1" id="Capa_1" xmlns="http://www.w3.org/2000/svg" xmlns:xlink="http://www.w3.org/1999/xlink" x="0px" y="0px"
	 width="17.008px" height="17.008px" viewBox="0 0 17.008 17.008" enable-background="new 0 0 17.008 17.008" xml:space="preserve">
<path fill="#111111" d="M16.622,8.504c0,4.483-3.635,8.118-8.118,8.118c-4.484,0-8.118-3.635-8.118-8.118
	c0-4.484,3.634-8.119,8.118-8.119C12.987,0.386,16.622,4.02,16.622,8.504"/>
<path fill="#FFFFFF" d="M13.773,11.134c-0.035,0.118-0.064,0.238-0.118,0.35c-0.033,0.074-0.062,0.086-0.121,0.02
	c-0.459-0.519-0.922-1.033-1.383-1.55c-0.605-0.678-1.21-1.357-1.817-2.033c-0.063-0.07-0.055-0.104,0.012-0.163
	c1.026-0.895,2.051-1.792,3.075-2.688c0.161-0.142,0.165-0.141,0.252,0.057c0.045,0.104,0.069,0.215,0.101,0.324V11.134z"/>
<path fill="#FFFFFF" d="M8.505,12.253c-1.317,0-2.636-0.001-3.953,0.001c-0.218,0-0.419-0.053-0.613-0.148
	c-0.073-0.036-0.097-0.068-0.03-0.143c1.077-1.203,2.154-2.407,3.229-3.614c0.063-0.073,0.105-0.08,0.181-0.014
	C7.616,8.603,7.921,8.864,8.223,9.13c0.21,0.186,0.352,0.184,0.564-0.004c0.302-0.266,0.605-0.528,0.904-0.794
	c0.064-0.058,0.104-0.064,0.167,0.005c0.938,1.057,1.882,2.11,2.822,3.165c0.14,0.156,0.277,0.313,0.419,0.466
	c0.059,0.062,0.05,0.093-0.021,0.13c-0.194,0.102-0.399,0.156-0.621,0.156C11.14,12.253,9.822,12.253,8.505,12.253"/>
<path fill="#FFFFFF" d="M8.499,4.333c1.316,0,2.634,0.001,3.951-0.001c0.196,0,0.38,0.045,0.558,0.123
	c0.08,0.036,0.078,0.065,0.015,0.119c-0.474,0.413-0.944,0.827-1.417,1.24c-0.797,0.698-1.595,1.396-2.393,2.094
	C8.999,8.095,8.783,8.28,8.571,8.47C8.52,8.518,8.484,8.513,8.433,8.468c-0.871-0.765-1.743-1.527-2.616-2.29
	C5.238,5.672,4.661,5.167,4.081,4.661c-0.038-0.034-0.074-0.07-0.114-0.103C3.911,4.515,3.93,4.489,3.981,4.463
	c0.18-0.084,0.365-0.131,0.566-0.13C5.864,4.334,7.182,4.333,8.499,4.333"/>
<path fill="#FFFFFF" d="M3.225,8.295c0-0.885,0.001-1.77,0-2.655c0-0.204,0.049-0.393,0.139-0.574
	c0.061-0.125,0.07-0.128,0.172-0.039c0.517,0.451,1.032,0.902,1.549,1.355C5.605,6.84,6.127,7.296,6.647,7.751
	c0.099,0.085,0.099,0.084,0.01,0.183c-1.061,1.186-2.119,2.373-3.179,3.561c-0.074,0.083-0.084,0.082-0.131-0.018
	c-0.08-0.17-0.124-0.347-0.123-0.536C3.226,10.059,3.225,9.176,3.225,8.295"/>
</svg>
