<?xml version="1.0" encoding="utf-8"?>
<!-- Generator: Adobe Illustrator 16.0.3, SVG Export Plug-In . SVG Version: 6.00 Build 0)  -->
<!DOCTYPE svg PUBLIC "-//W3C//DTD SVG 1.1//EN" "http://www.w3.org/Graphics/SVG/1.1/DTD/svg11.dtd">
<svg version="1.1" id="Capa_1" xmlns="http://www.w3.org/2000/svg" xmlns:xlink="http://www.w3.org/1999/xlink" x="0px" y="0px"
	 width="16.856px" height="16.635px" viewBox="0 0 16.856 16.635" enable-background="new 0 0 16.856 16.635" xml:space="preserve">
<path fill="#111111" d="M16.576,9.226c-0.054,0.367-0.092,0.735-0.173,1.097c-0.326,1.45-0.99,2.719-2,3.809
	c-0.441,0.476-0.942,0.878-1.468,1.26c-0.561,0.406-1.177,0.685-1.822,0.914c-0.425,0.15-0.675-0.027-0.677-0.479
	c-0.002-0.751,0.001-1.505-0.002-2.257c-0.003-0.496-0.108-0.956-0.465-1.33c-0.105-0.109,0.025-0.108,0.073-0.112
	c0.281-0.021,0.549-0.104,0.82-0.172c0.445-0.114,0.864-0.285,1.256-0.526c0.506-0.311,0.886-0.735,1.114-1.287
	c0.363-0.878,0.465-1.789,0.314-2.726c-0.084-0.519-0.311-0.977-0.655-1.373c-0.087-0.102-0.101-0.187-0.06-0.314
	c0.205-0.648,0.13-1.287-0.099-1.915c-0.033-0.091-0.096-0.111-0.184-0.116c-0.374-0.017-0.703,0.136-1.033,0.278
	c-0.317,0.135-0.619,0.302-0.904,0.498c-0.096,0.066-0.186,0.079-0.298,0.046c-0.61-0.167-1.237-0.239-1.869-0.24
	s-1.257,0.067-1.87,0.236C6.452,4.551,6.356,4.534,6.249,4.464C5.742,4.129,5.198,3.869,4.604,3.728
	C4.207,3.632,4.167,3.662,4.055,4.048c-0.169,0.584-0.197,1.168,0.006,1.75c0.026,0.073,0.013,0.129-0.037,0.187
	C3.357,6.741,3.189,7.635,3.281,8.61c0.034,0.358,0.086,0.714,0.186,1.062c0.267,0.926,0.823,1.599,1.71,1.991
	c0.262,0.117,0.531,0.212,0.808,0.288c0.27,0.073,0.539,0.146,0.819,0.174c0.149,0.016,0.156,0.044,0.055,0.157
	c-0.21,0.237-0.33,0.518-0.38,0.826c-0.02,0.113-0.065,0.182-0.173,0.219c-0.37,0.131-0.75,0.198-1.139,0.135
	c-0.484-0.082-0.813-0.393-1.058-0.795c-0.221-0.36-0.495-0.663-0.884-0.843c-0.2-0.091-0.411-0.132-0.633-0.079
	c-0.109,0.028-0.137,0.082-0.082,0.187c0.06,0.108,0.129,0.208,0.239,0.269c0.418,0.229,0.652,0.609,0.85,1.021
	c0.028,0.056,0.054,0.114,0.076,0.174c0.229,0.624,0.707,0.915,1.333,1.005c0.421,0.06,0.845,0.065,1.265-0.006
	c0.122-0.021,0.167,0.008,0.167,0.129c-0.001,0.468,0.008,0.933,0.001,1.4c-0.004,0.336-0.273,0.512-0.613,0.405
	c-0.503-0.157-0.986-0.364-1.434-0.638c-1.408-0.856-2.521-1.997-3.259-3.478c-0.455-0.918-0.738-1.89-0.82-2.918
	C0.204,7.941,0.374,6.633,0.888,5.373C1.43,4.046,2.275,2.959,3.381,2.055c1.085-0.886,2.316-1.444,3.693-1.662
	c2.17-0.344,4.192,0.069,5.999,1.339c1.221,0.857,2.169,1.971,2.783,3.344c0.379,0.846,0.63,1.729,0.699,2.659
	c0.002,0.03,0.013,0.061,0.021,0.093V9.226z"/>
</svg>
