<?xml version="1.0" encoding="utf-8"?>
<!-- Generator: Adobe Illustrator 16.0.3, SVG Export Plug-In . SVG Version: 6.00 Build 0)  -->
<!DOCTYPE svg PUBLIC "-//W3C//DTD SVG 1.1//EN" "http://www.w3.org/Graphics/SVG/1.1/DTD/svg11.dtd">
<svg version="1.1" id="Capa_1" xmlns="http://www.w3.org/2000/svg" xmlns:xlink="http://www.w3.org/1999/xlink" x="0px" y="0px"
	 width="16.855px" height="17.043px" viewBox="0 0 16.855 17.043" enable-background="new 0 0 16.855 17.043" xml:space="preserve">
<path fill="#FFFFFF" d="M16.491,8.726c0,4.442-3.602,8.044-8.044,8.044c-4.441,0-8.043-3.602-8.043-8.044s3.602-8.044,8.043-8.044
	C12.89,0.682,16.491,4.283,16.491,8.726"/>
<path fill="#111111" d="M16.585,9.234c-0.054,0.367-0.092,0.735-0.173,1.097c-0.326,1.452-0.99,2.723-2.003,3.813
	c-0.44,0.478-0.943,0.88-1.47,1.262c-0.562,0.406-1.179,0.685-1.824,0.915c-0.427,0.151-0.676-0.028-0.678-0.48
	c-0.002-0.753,0.001-1.506-0.002-2.26c-0.004-0.495-0.109-0.957-0.467-1.332c-0.105-0.11,0.025-0.108,0.073-0.112
	c0.282-0.021,0.55-0.104,0.821-0.173c0.445-0.114,0.865-0.285,1.258-0.526c0.506-0.311,0.887-0.736,1.115-1.289
	c0.363-0.879,0.466-1.792,0.314-2.729c-0.084-0.519-0.312-0.979-0.656-1.375c-0.087-0.102-0.101-0.187-0.061-0.314
	c0.205-0.649,0.132-1.288-0.098-1.917c-0.033-0.092-0.096-0.113-0.185-0.116c-0.374-0.018-0.703,0.136-1.034,0.278
	c-0.316,0.135-0.62,0.303-0.905,0.499c-0.096,0.065-0.186,0.078-0.298,0.046c-0.61-0.168-1.239-0.239-1.871-0.24
	s-1.26,0.067-1.872,0.236C6.448,4.552,6.353,4.536,6.245,4.465C5.737,4.129,5.193,3.869,4.599,3.728
	C4.201,3.632,4.161,3.661,4.05,4.049C3.879,4.633,3.852,5.218,4.055,5.8c0.026,0.075,0.014,0.131-0.036,0.188
	C3.35,6.745,3.182,7.642,3.273,8.616c0.034,0.36,0.086,0.715,0.187,1.063c0.268,0.927,0.823,1.601,1.712,1.995
	c0.262,0.116,0.531,0.212,0.808,0.287c0.271,0.074,0.541,0.146,0.82,0.175c0.149,0.016,0.157,0.043,0.055,0.157
	c-0.211,0.237-0.329,0.518-0.381,0.827c-0.02,0.113-0.064,0.181-0.174,0.219c-0.37,0.13-0.75,0.198-1.14,0.134
	c-0.485-0.082-0.813-0.392-1.06-0.795c-0.222-0.36-0.495-0.663-0.885-0.842c-0.2-0.092-0.411-0.134-0.634-0.08
	c-0.11,0.027-0.138,0.083-0.083,0.185c0.061,0.109,0.129,0.209,0.239,0.27c0.418,0.229,0.652,0.61,0.851,1.021
	c0.029,0.057,0.055,0.115,0.076,0.175c0.229,0.625,0.708,0.915,1.334,1.006c0.423,0.06,0.847,0.064,1.268-0.007
	c0.122-0.02,0.167,0.009,0.167,0.131c-0.001,0.466,0.007,0.934,0.001,1.4c-0.004,0.338-0.273,0.513-0.614,0.407
	c-0.503-0.157-0.987-0.365-1.435-0.639c-1.41-0.858-2.525-1.999-3.264-3.482c-0.455-0.918-0.738-1.892-0.82-2.921
	C0.193,7.946,0.363,6.638,0.878,5.375C1.42,4.047,2.267,2.958,3.375,2.053C4.461,1.166,5.693,0.607,7.072,0.39
	c2.172-0.344,4.197,0.068,6.006,1.34c1.224,0.859,2.172,1.973,2.787,3.348c0.38,0.847,0.631,1.731,0.699,2.663
	c0.003,0.031,0.013,0.062,0.021,0.093V9.234z"/>
</svg>
