<?xml version="1.0" encoding="utf-8"?>
<!-- Generator: Adobe Illustrator 16.0.3, SVG Export Plug-In . SVG Version: 6.00 Build 0)  -->
<!DOCTYPE svg PUBLIC "-//W3C//DTD SVG 1.1//EN" "http://www.w3.org/Graphics/SVG/1.1/DTD/svg11.dtd">
<svg version="1.1" id="Capa_1" xmlns="http://www.w3.org/2000/svg" xmlns:xlink="http://www.w3.org/1999/xlink" x="0px" y="0px"
	 width="22.816px" height="22.806px" viewBox="0 0 22.816 22.806" enable-background="new 0 0 22.816 22.806" xml:space="preserve">
<path fill="#111111" d="M12.23,22.306h-1.617c-0.042-0.008-0.083-0.021-0.125-0.024c-0.803-0.063-1.586-0.219-2.352-0.46
	c-5.443-1.717-8.658-7.369-7.343-12.91c1.342-5.651,6.813-9.248,12.538-8.243c4.134,0.725,7.502,3.794,8.617,7.845
	c0.184,0.671,0.283,1.358,0.367,2.047v1.702c-0.042,0.315-0.073,0.632-0.127,0.946c-0.742,4.307-3.863,7.694-8.099,8.789
	C13.479,22.155,12.855,22.233,12.23,22.306 M3.753,10.73c0.547,0,1.092-0.004,1.638,0.002c0.191,0.001,0.264-0.08,0.271-0.266
	c0.012-0.296,0.033-0.593,0.064-0.889c0.087-0.818,0.238-1.625,0.452-2.42C6.215,7.024,6.19,6.957,6.036,6.957
	C5.059,6.959,4.081,6.959,3.103,6.958C2.999,6.957,2.929,6.997,2.881,7.09c-0.543,1.066-0.867,2.195-0.982,3.386
	c-0.019,0.206,0.076,0.258,0.261,0.257C2.69,10.727,3.222,10.73,3.753,10.73 M19.066,10.73c0.511,0,1.021,0.001,1.531,0
	c0.35,0,0.378-0.031,0.337-0.381c-0.131-1.1-0.428-2.15-0.912-3.148c-0.085-0.174-0.186-0.252-0.389-0.249
	c-0.907,0.011-1.814,0.004-2.722,0.005c-0.292,0-0.299,0.009-0.229,0.283c0.276,1.059,0.453,2.132,0.497,3.226
	c0.007,0.187,0.08,0.268,0.271,0.266C17.989,10.727,18.528,10.73,19.066,10.73 M3.778,12.092c-0.511,0-1.021,0-1.53,0
	c-0.354,0.001-0.382,0.028-0.341,0.377c0.13,1.115,0.435,2.178,0.931,3.186c0.076,0.154,0.173,0.214,0.347,0.213
	c0.921-0.006,1.843-0.003,2.764-0.004c0.271,0,0.28-0.013,0.21-0.279c-0.274-1.059-0.454-2.132-0.496-3.226
	c-0.008-0.202-0.094-0.272-0.289-0.269C4.842,12.097,4.311,12.092,3.778,12.092 M18.28,15.864c0.461,0,0.921-0.006,1.382,0.004
	c0.176,0.004,0.27-0.063,0.343-0.217c0.267-0.551,0.485-1.118,0.646-1.707c0.143-0.521,0.238-1.049,0.293-1.585
	c0.019-0.191-0.048-0.283-0.247-0.269c-0.112,0.007-0.227,0.001-0.34,0.001c-0.962,0-1.928,0.002-2.892-0.002
	c-0.198-0.001-0.288,0.072-0.284,0.273c0.004,0.127-0.003,0.255-0.014,0.382c-0.087,0.982-0.242,1.953-0.501,2.905
	c-0.045,0.164,0.003,0.218,0.169,0.216C17.316,15.862,17.798,15.864,18.28,15.864 M10.739,8.858c0-0.553-0.003-1.106,0.002-1.66
	c0.002-0.165-0.05-0.245-0.231-0.244C9.616,6.961,8.723,6.96,7.83,6.956C7.697,6.955,7.623,6.999,7.583,7.132
	c-0.322,1.092-0.52,2.203-0.58,3.34c-0.01,0.199,0.071,0.261,0.26,0.26c1.07-0.005,2.141-0.006,3.211,0
	c0.207,0.001,0.272-0.083,0.269-0.28C10.734,9.922,10.74,9.39,10.739,8.858 M10.74,13.987c0-0.532,0.001-1.063-0.001-1.595
	c-0.001-0.275-0.021-0.298-0.286-0.298c-1.056-0.002-2.111-0.002-3.167,0c-0.269,0-0.292,0.02-0.278,0.297
	c0.057,1.115,0.258,2.207,0.565,3.28c0.05,0.166,0.146,0.197,0.298,0.197c0.865-0.005,1.729-0.002,2.594-0.003
	c0.256,0,0.273-0.019,0.274-0.283C10.741,15.05,10.74,14.519,10.74,13.987 M12.103,8.838c0,0.53-0.001,1.063,0.002,1.594
	c0,0.273,0.021,0.297,0.285,0.298c1.056,0.001,2.111,0.001,3.168,0c0.267-0.001,0.291-0.021,0.276-0.299
	c-0.059-1.116-0.256-2.206-0.566-3.278c-0.047-0.166-0.146-0.199-0.299-0.199c-0.864,0.005-1.729,0.002-2.594,0.003
	c-0.254,0-0.271,0.019-0.271,0.284C12.102,7.774,12.103,8.306,12.103,8.838 M12.104,13.97c0,0.553,0.001,1.105-0.003,1.658
	c-0.001,0.151,0.04,0.239,0.216,0.238c0.9-0.004,1.799-0.003,2.699,0c0.137,0,0.206-0.055,0.244-0.183
	c0.322-1.092,0.518-2.204,0.578-3.341c0.01-0.185-0.063-0.252-0.244-0.252c-1.078,0.005-2.155,0.005-3.231,0
	c-0.193-0.001-0.266,0.072-0.263,0.264C12.107,12.892,12.104,13.431,12.104,13.97 M14.262,2.29c0.027,0.057,0.032,0.078,0.045,0.093
	c0.742,0.916,1.32,1.927,1.761,3.02c0.062,0.155,0.152,0.213,0.319,0.211c0.793-0.007,1.588-0.002,2.381-0.004
	c0.067-0.001,0.161,0.038,0.194-0.038c0.028-0.07-0.057-0.122-0.099-0.175c-1.063-1.31-2.381-2.276-3.948-2.899
	C14.713,2.417,14.511,2.335,14.262,2.29 M8.557,2.29C8.508,2.3,8.473,2.306,8.44,2.317C6.634,2.912,5.142,3.96,3.946,5.437
	C3.913,5.478,3.848,5.52,3.884,5.58c0.033,0.054,0.104,0.029,0.158,0.029c0.772,0.002,1.544-0.009,2.317,0.008
	c0.244,0.003,0.364-0.072,0.456-0.301C7.228,4.283,7.781,3.33,8.475,2.459C8.508,2.416,8.562,2.383,8.557,2.29 M8.584,20.548
	c-0.029-0.065-0.036-0.093-0.051-0.112c-0.748-0.922-1.327-1.94-1.768-3.039c-0.062-0.153-0.163-0.189-0.313-0.188
	c-0.794,0.005-1.587,0.002-2.382,0.004c-0.065,0-0.159-0.038-0.191,0.042c-0.024,0.06,0.051,0.111,0.09,0.158
	c1.137,1.396,2.547,2.408,4.243,3.016C8.322,20.467,8.436,20.5,8.584,20.548 M14.285,20.526c0.036-0.004,0.059-0.003,0.077-0.01
	c1.833-0.59,3.34-1.653,4.548-3.147c0.028-0.036,0.083-0.075,0.05-0.127c-0.031-0.048-0.091-0.029-0.139-0.029
	c-0.78-0.001-1.56,0.01-2.339-0.005c-0.244-0.005-0.365,0.072-0.455,0.3c-0.414,1.033-0.968,1.986-1.66,2.858
	C14.334,20.406,14.28,20.439,14.285,20.526 M12.104,3.864c0,0.503,0.002,1.006-0.003,1.509c-0.002,0.169,0.06,0.242,0.236,0.24
	c0.715-0.007,1.432-0.005,2.146-0.001c0.172,0.001,0.197-0.06,0.123-0.203c-0.131-0.251-0.248-0.511-0.386-0.757
	c-0.493-0.877-1.078-1.681-1.86-2.327c-0.063-0.05-0.125-0.153-0.21-0.118c-0.089,0.038-0.046,0.153-0.047,0.233
	C12.101,2.915,12.103,3.389,12.104,3.864 M12.103,18.938c0,0.474-0.002,0.949,0.002,1.423c0.001,0.087-0.046,0.212,0.048,0.251
	c0.088,0.038,0.158-0.074,0.225-0.131c1.003-0.844,1.688-1.917,2.24-3.088c0.073-0.157,0.004-0.184-0.134-0.183
	c-0.715,0.002-1.432,0.004-2.146-0.002c-0.178-0.001-0.237,0.072-0.235,0.242C12.106,17.946,12.104,18.441,12.103,18.938
	 M10.74,3.872c0-0.503,0-1.005-0.001-1.508c0-0.054,0.018-0.125-0.039-0.156c-0.063-0.034-0.101,0.032-0.146,0.06
	c-0.013,0.008-0.022,0.018-0.033,0.027c-1.037,0.851-1.736,1.949-2.3,3.146c-0.082,0.177,0.037,0.17,0.15,0.17
	c0.702,0,1.402-0.006,2.104,0.004c0.21,0.003,0.271-0.081,0.268-0.277C10.734,4.849,10.74,4.36,10.74,3.872 M10.739,18.959
	c0-0.503-0.002-1.006,0.002-1.508c0-0.151-0.037-0.243-0.214-0.242c-0.729,0.005-1.459,0.003-2.188,0.001
	c-0.146,0-0.178,0.056-0.112,0.182c0.13,0.252,0.247,0.51,0.385,0.757c0.496,0.891,1.09,1.706,1.886,2.358
	c0.059,0.047,0.117,0.142,0.192,0.106c0.092-0.04,0.048-0.151,0.049-0.23C10.742,19.908,10.74,19.434,10.739,18.959"/>
<path fill="none" stroke="#111111" stroke-width="0.5" stroke-miterlimit="10" d="M12.23,22.306h-1.617
	c-0.042-0.008-0.083-0.021-0.125-0.024c-0.803-0.063-1.586-0.219-2.352-0.46c-5.443-1.717-8.658-7.369-7.343-12.91
	c1.342-5.651,6.813-9.248,12.538-8.243c4.134,0.725,7.502,3.794,8.617,7.845c0.184,0.671,0.283,1.358,0.367,2.047v1.702
	c-0.042,0.315-0.073,0.632-0.127,0.946c-0.742,4.307-3.863,7.694-8.099,8.789C13.479,22.155,12.855,22.233,12.23,22.306z
	 M3.753,10.73c0.547,0,1.092-0.004,1.638,0.002c0.191,0.001,0.264-0.08,0.271-0.266c0.012-0.296,0.033-0.593,0.064-0.889
	c0.087-0.818,0.238-1.625,0.452-2.42C6.215,7.024,6.19,6.957,6.036,6.957C5.059,6.959,4.081,6.959,3.103,6.958
	C2.999,6.957,2.929,6.997,2.881,7.09c-0.543,1.066-0.867,2.195-0.982,3.386c-0.019,0.206,0.076,0.258,0.261,0.257
	C2.69,10.727,3.222,10.73,3.753,10.73z M19.066,10.73c0.511,0,1.021,0.001,1.531,0c0.35,0,0.378-0.031,0.337-0.381
	c-0.131-1.1-0.428-2.15-0.912-3.148c-0.085-0.174-0.186-0.252-0.389-0.249c-0.907,0.011-1.814,0.004-2.722,0.005
	c-0.292,0-0.299,0.009-0.229,0.283c0.276,1.059,0.453,2.132,0.497,3.226c0.007,0.187,0.08,0.268,0.271,0.266
	C17.989,10.727,18.528,10.73,19.066,10.73z M3.778,12.092c-0.511,0-1.021,0-1.53,0c-0.354,0.001-0.382,0.028-0.341,0.377
	c0.13,1.115,0.435,2.178,0.931,3.186c0.076,0.154,0.173,0.214,0.347,0.213c0.921-0.006,1.843-0.003,2.764-0.004
	c0.271,0,0.28-0.013,0.21-0.279c-0.274-1.059-0.454-2.132-0.496-3.226c-0.008-0.202-0.094-0.272-0.289-0.269
	C4.842,12.097,4.311,12.092,3.778,12.092z M18.28,15.864c0.461,0,0.921-0.006,1.382,0.004c0.176,0.004,0.27-0.063,0.343-0.217
	c0.267-0.551,0.485-1.118,0.646-1.707c0.143-0.521,0.238-1.049,0.293-1.585c0.019-0.191-0.048-0.283-0.247-0.269
	c-0.112,0.007-0.227,0.001-0.34,0.001c-0.962,0-1.928,0.002-2.892-0.002c-0.198-0.001-0.288,0.072-0.284,0.273
	c0.004,0.127-0.003,0.255-0.014,0.382c-0.087,0.982-0.242,1.953-0.501,2.905c-0.045,0.164,0.003,0.218,0.169,0.216
	C17.316,15.862,17.798,15.864,18.28,15.864z M10.739,8.858c0-0.553-0.003-1.106,0.002-1.66c0.002-0.165-0.05-0.245-0.231-0.244
	C9.616,6.961,8.723,6.96,7.83,6.956C7.697,6.955,7.623,6.999,7.583,7.132c-0.322,1.092-0.52,2.203-0.58,3.34
	c-0.01,0.199,0.071,0.261,0.26,0.26c1.07-0.005,2.141-0.006,3.211,0c0.207,0.001,0.272-0.083,0.269-0.28
	C10.734,9.922,10.74,9.39,10.739,8.858z M10.74,13.987c0-0.532,0.001-1.063-0.001-1.595c-0.001-0.275-0.021-0.298-0.286-0.298
	c-1.056-0.002-2.111-0.002-3.167,0c-0.269,0-0.292,0.02-0.278,0.297c0.057,1.115,0.258,2.207,0.565,3.28
	c0.05,0.166,0.146,0.197,0.298,0.197c0.865-0.005,1.729-0.002,2.594-0.003c0.256,0,0.273-0.019,0.274-0.283
	C10.741,15.05,10.74,14.519,10.74,13.987z M12.103,8.838c0,0.53-0.001,1.063,0.002,1.594c0,0.273,0.021,0.297,0.285,0.298
	c1.056,0.001,2.111,0.001,3.168,0c0.267-0.001,0.291-0.021,0.276-0.299c-0.059-1.116-0.256-2.206-0.566-3.278
	c-0.047-0.166-0.146-0.199-0.299-0.199c-0.864,0.005-1.729,0.002-2.594,0.003c-0.254,0-0.271,0.019-0.271,0.284
	C12.102,7.774,12.103,8.306,12.103,8.838z M12.104,13.97c0,0.553,0.001,1.105-0.003,1.658c-0.001,0.151,0.04,0.239,0.216,0.238
	c0.9-0.004,1.799-0.003,2.699,0c0.137,0,0.206-0.055,0.244-0.183c0.322-1.092,0.518-2.204,0.578-3.341
	c0.01-0.185-0.063-0.252-0.244-0.252c-1.078,0.005-2.155,0.005-3.231,0c-0.193-0.001-0.266,0.072-0.263,0.264
	C12.107,12.892,12.104,13.431,12.104,13.97z M14.262,2.29c0.027,0.057,0.032,0.078,0.045,0.093c0.742,0.916,1.32,1.927,1.761,3.02
	c0.062,0.155,0.152,0.213,0.319,0.211c0.793-0.007,1.588-0.002,2.381-0.004c0.067-0.001,0.161,0.038,0.194-0.038
	c0.028-0.07-0.057-0.122-0.099-0.175c-1.063-1.31-2.381-2.276-3.948-2.899C14.713,2.417,14.511,2.335,14.262,2.29z M8.557,2.29
	C8.508,2.3,8.473,2.306,8.44,2.317C6.634,2.912,5.142,3.96,3.946,5.437C3.913,5.478,3.848,5.52,3.884,5.58
	c0.033,0.054,0.104,0.029,0.158,0.029c0.772,0.002,1.544-0.009,2.317,0.008c0.244,0.003,0.364-0.072,0.456-0.301
	C7.228,4.283,7.781,3.33,8.475,2.459C8.508,2.416,8.562,2.383,8.557,2.29z M8.584,20.548c-0.029-0.065-0.036-0.093-0.051-0.112
	c-0.748-0.922-1.327-1.94-1.768-3.039c-0.062-0.153-0.163-0.189-0.313-0.188c-0.794,0.005-1.587,0.002-2.382,0.004
	c-0.065,0-0.159-0.038-0.191,0.042c-0.024,0.06,0.051,0.111,0.09,0.158c1.137,1.396,2.547,2.408,4.243,3.016
	C8.322,20.467,8.436,20.5,8.584,20.548z M14.285,20.526c0.036-0.004,0.059-0.003,0.077-0.01c1.833-0.59,3.34-1.653,4.548-3.147
	c0.028-0.036,0.083-0.075,0.05-0.127c-0.031-0.048-0.091-0.029-0.139-0.029c-0.78-0.001-1.56,0.01-2.339-0.005
	c-0.244-0.005-0.365,0.072-0.455,0.3c-0.414,1.033-0.968,1.986-1.66,2.858C14.334,20.406,14.28,20.439,14.285,20.526z M12.104,3.864
	c0,0.503,0.002,1.006-0.003,1.509c-0.002,0.169,0.06,0.242,0.236,0.24c0.715-0.007,1.432-0.005,2.146-0.001
	c0.172,0.001,0.197-0.06,0.123-0.203c-0.131-0.251-0.248-0.511-0.386-0.757c-0.493-0.877-1.078-1.681-1.86-2.327
	c-0.063-0.05-0.125-0.153-0.21-0.118c-0.089,0.038-0.046,0.153-0.047,0.233C12.101,2.915,12.103,3.389,12.104,3.864z M12.103,18.938
	c0,0.474-0.002,0.949,0.002,1.423c0.001,0.087-0.046,0.212,0.048,0.251c0.088,0.038,0.158-0.074,0.225-0.131
	c1.003-0.844,1.688-1.917,2.24-3.088c0.073-0.157,0.004-0.184-0.134-0.183c-0.715,0.002-1.432,0.004-2.146-0.002
	c-0.178-0.001-0.237,0.072-0.235,0.242C12.106,17.946,12.104,18.441,12.103,18.938z M10.74,3.872c0-0.503,0-1.005-0.001-1.508
	c0-0.054,0.018-0.125-0.039-0.156c-0.063-0.034-0.101,0.032-0.146,0.06c-0.013,0.008-0.022,0.018-0.033,0.027
	c-1.037,0.851-1.736,1.949-2.3,3.146c-0.082,0.177,0.037,0.17,0.15,0.17c0.702,0,1.402-0.006,2.104,0.004
	c0.21,0.003,0.271-0.081,0.268-0.277C10.734,4.849,10.74,4.36,10.74,3.872z M10.739,18.959c0-0.503-0.002-1.006,0.002-1.508
	c0-0.151-0.037-0.243-0.214-0.242c-0.729,0.005-1.459,0.003-2.188,0.001c-0.146,0-0.178,0.056-0.112,0.182
	c0.13,0.252,0.247,0.51,0.385,0.757c0.496,0.891,1.09,1.706,1.886,2.358c0.059,0.047,0.117,0.142,0.192,0.106
	c0.092-0.04,0.048-0.151,0.049-0.23C10.742,19.908,10.74,19.434,10.739,18.959z"/>
</svg>
