<?xml version="1.0" encoding="utf-8"?>
<!-- Generator: Adobe Illustrator 16.0.3, SVG Export Plug-In . SVG Version: 6.00 Build 0)  -->
<!DOCTYPE svg PUBLIC "-//W3C//DTD SVG 1.1//EN" "http://www.w3.org/Graphics/SVG/1.1/DTD/svg11.dtd">
<svg version="1.1" id="Capa_1" xmlns="http://www.w3.org/2000/svg" xmlns:xlink="http://www.w3.org/1999/xlink" x="0px" y="0px"
	 width="17.008px" height="17.008px" viewBox="0 0 17.008 17.008" enable-background="new 0 0 17.008 17.008" xml:space="preserve">
<path fill="#111111" d="M16.831,8.504c0,4.599-3.728,8.327-8.327,8.327c-4.599,0-8.327-3.728-8.327-8.327
	c0-4.6,3.729-8.328,8.327-8.328C13.104,0.177,16.831,3.905,16.831,8.504"/>
<path fill="#FFFFFF" d="M8.323,14.284c-0.082-0.038-0.148-0.093-0.207-0.161C6.922,12.742,5.845,11.28,5.03,9.638
	C4.697,8.967,4.423,8.273,4.313,7.526C4.15,6.396,4.411,5.362,5.1,4.458c0.919-1.208,2.16-1.763,3.672-1.671
	c1.847,0.113,3.45,1.572,3.778,3.395c0.137,0.759,0.05,1.492-0.187,2.217c-0.33,1.01-0.837,1.932-1.404,2.822
	c-0.63,0.983-1.334,1.91-2.095,2.796c-0.088,0.102-0.171,0.211-0.302,0.268H8.323z M8.45,4.873C7.294,4.871,6.366,5.79,6.364,6.938
	c-0.002,1.151,0.923,2.09,2.064,2.093c1.152,0.003,2.089-0.922,2.093-2.064C10.525,5.802,9.607,4.875,8.45,4.873"/>
</svg>
