<?xml version="1.0" encoding="utf-8"?>
<!-- Generator: Adobe Illustrator 16.0.3, SVG Export Plug-In . SVG Version: 6.00 Build 0)  -->
<!DOCTYPE svg PUBLIC "-//W3C//DTD SVG 1.1//EN" "http://www.w3.org/Graphics/SVG/1.1/DTD/svg11.dtd">
<svg version="1.1" id="Capa_1" xmlns="http://www.w3.org/2000/svg" xmlns:xlink="http://www.w3.org/1999/xlink" x="0px" y="0px"
	 width="20.293px" height="20.143px" viewBox="0 0 20.293 20.143" enable-background="new 0 0 20.293 20.143" xml:space="preserve">
<g>
	<path fill="#111111" d="M0.171,18.549c0.756-1.709,1.515-3.416,2.263-5.127c0.158-0.361,0.402-0.61,0.753-0.789
		c1.066-0.544,2.127-1.097,3.186-1.659c0.207-0.109,0.36-0.095,0.548,0.042c1.067,0.77,2.264,1.117,3.575,1.036
		c1.045-0.063,2.002-0.409,2.85-1.029c0.195-0.142,0.353-0.158,0.567-0.045c1.075,0.571,2.157,1.13,3.239,1.689
		c0.302,0.155,0.519,0.376,0.658,0.689c0.729,1.653,1.47,3.3,2.194,4.953c0.371,0.849-0.174,1.664-1.099,1.665
		c-5.843,0.001-11.685,0-17.526,0c-0.61,0-0.953-0.252-1.208-0.884V18.549z"/>
	<path fill="#111111" d="M5.644,5.338C5.661,4.407,5.76,3.49,6.113,2.616c0.489-1.208,1.362-1.976,2.632-2.278
		c0.967-0.231,1.935-0.226,2.896,0.026c1.207,0.316,2.079,1.056,2.502,2.226c0.699,1.937,0.759,3.879-0.265,5.738
		c-0.688,1.25-1.722,2.085-3.167,2.313c-1.166,0.183-2.208-0.145-3.116-0.88c-1.066-0.864-1.64-2.012-1.869-3.347
		C5.666,6.057,5.629,5.7,5.644,5.338"/>
</g>
</svg>
