<?xml version="1.0" encoding="utf-8"?>
<!-- Generator: Adobe Illustrator 16.0.3, SVG Export Plug-In . SVG Version: 6.00 Build 0)  -->
<!DOCTYPE svg PUBLIC "-//W3C//DTD SVG 1.1//EN" "http://www.w3.org/Graphics/SVG/1.1/DTD/svg11.dtd">
<svg version="1.1" id="Capa_1" xmlns="http://www.w3.org/2000/svg" xmlns:xlink="http://www.w3.org/1999/xlink" x="0px" y="0px"
	 width="17.008px" height="17.008px" viewBox="0 0 17.008 17.008" enable-background="new 0 0 17.008 17.008" xml:space="preserve">
<path fill="#111111" d="M16.655,8.504c0,4.501-3.648,8.151-8.151,8.151c-4.502,0-8.151-3.65-8.151-8.151
	c0-4.502,3.649-8.151,8.151-8.151C13.007,0.353,16.655,4.001,16.655,8.504"/>
<path fill="#FFFFFF" d="M3.838,5.821C3.87,5.601,3.903,5.382,3.98,5.171C4.102,4.843,4.27,4.543,4.524,4.298
	C4.6,4.226,4.67,4.15,4.745,4.078c0.323-0.311,0.778-0.31,1.096,0.006c0.466,0.463,0.932,0.928,1.395,1.395
	C7.556,5.801,7.56,6.256,7.242,6.58C7.023,6.804,6.8,7.024,6.577,7.246C6.542,7.28,6.521,7.31,6.552,7.364
	c0.276,0.501,0.572,0.99,0.944,1.429c0.525,0.621,1.15,1.119,1.856,1.518c0.106,0.061,0.214,0.117,0.318,0.179
	c0.057,0.034,0.094,0.029,0.141-0.019c0.209-0.214,0.42-0.424,0.632-0.635c0.351-0.347,0.802-0.348,1.148-0.002
	c0.455,0.455,0.91,0.909,1.363,1.363c0.333,0.334,0.333,0.794-0.001,1.13c-0.208,0.208-0.411,0.422-0.676,0.564
	c-0.282,0.153-0.578,0.256-0.895,0.299c-0.019,0.002-0.036,0.008-0.054,0.013H11.02c-0.018-0.004-0.035-0.011-0.054-0.012
	c-0.238-0.01-0.471-0.053-0.702-0.106c-0.915-0.216-1.735-0.637-2.493-1.184c-1.152-0.833-2.124-1.847-2.959-2.996
	C4.469,8.433,4.193,7.922,4.014,7.362c-0.087-0.27-0.135-0.548-0.176-0.828V5.821z"/>
</svg>
