<?xml version="1.0" encoding="utf-8"?>
<!-- Generator: Adobe Illustrator 16.0.3, SVG Export Plug-In . SVG Version: 6.00 Build 0)  -->
<!DOCTYPE svg PUBLIC "-//W3C//DTD SVG 1.1//EN" "http://www.w3.org/Graphics/SVG/1.1/DTD/svg11.dtd">
<svg version="1.1" id="Capa_1" xmlns="http://www.w3.org/2000/svg" xmlns:xlink="http://www.w3.org/1999/xlink" x="0px" y="0px"
	 width="21.81px" height="20.834px" viewBox="0 0 21.81 20.834" enable-background="new 0 0 21.81 20.834" xml:space="preserve">
<path fill="#111111" d="M0.548,8.031c0.089-0.16,0.225-0.232,0.407-0.259c2.137-0.306,4.274-0.62,6.413-0.927
	c0.155-0.022,0.228-0.108,0.291-0.238C8.583,4.727,9.51,2.85,10.438,0.971c0.029-0.06,0.06-0.12,0.089-0.181
	c0.074-0.151,0.184-0.246,0.36-0.25c0.186-0.003,0.302,0.092,0.38,0.25c0.322,0.652,0.646,1.304,0.967,1.957
	c0.644,1.305,1.288,2.609,1.928,3.916c0.058,0.119,0.145,0.163,0.265,0.181c2.138,0.31,4.274,0.622,6.412,0.93
	c0.189,0.026,0.34,0.094,0.401,0.284c0.062,0.192-0.027,0.334-0.162,0.466c-1.535,1.496-3.064,2.995-4.601,4.487
	c-0.125,0.122-0.162,0.234-0.131,0.408c0.37,2.121,0.733,4.244,1.098,6.366c0.029,0.173-0.007,0.324-0.153,0.431
	c-0.155,0.114-0.313,0.086-0.474,0.002c-1.104-0.58-2.208-1.158-3.31-1.738c-0.806-0.423-1.611-0.843-2.414-1.271
	c-0.14-0.075-0.254-0.073-0.396,0.001c-1.864,0.984-3.73,1.963-5.598,2.944c-0.052,0.028-0.107,0.056-0.161,0.083
	c-0.151,0.076-0.299,0.083-0.438-0.02c-0.146-0.107-0.184-0.258-0.153-0.431c0.111-0.637,0.221-1.272,0.33-1.91
	C4.94,16.364,5.2,14.852,5.462,13.34c0.022-0.125-0.019-0.214-0.109-0.303c-1.488-1.446-2.975-2.895-4.459-4.342
	c-0.116-0.112-0.23-0.227-0.345-0.34V8.031z"/>
<path fill="none" stroke="#111111" stroke-width="0.75" stroke-miterlimit="10" d="M0.548,8.031c0.089-0.16,0.225-0.232,0.407-0.259
	c2.137-0.306,4.274-0.62,6.413-0.927c0.155-0.022,0.228-0.108,0.291-0.238C8.583,4.727,9.51,2.85,10.438,0.971
	c0.029-0.06,0.06-0.12,0.089-0.181c0.074-0.151,0.184-0.246,0.36-0.25c0.186-0.003,0.302,0.092,0.38,0.25
	c0.322,0.652,0.646,1.304,0.967,1.957c0.644,1.305,1.288,2.609,1.928,3.916c0.058,0.119,0.145,0.163,0.265,0.181
	c2.138,0.31,4.274,0.622,6.412,0.93c0.189,0.026,0.34,0.094,0.401,0.284c0.062,0.192-0.027,0.334-0.162,0.466
	c-1.535,1.496-3.064,2.995-4.601,4.487c-0.125,0.122-0.162,0.234-0.131,0.408c0.37,2.121,0.733,4.244,1.098,6.366
	c0.029,0.173-0.007,0.324-0.153,0.431c-0.155,0.114-0.313,0.086-0.474,0.002c-1.104-0.58-2.208-1.158-3.31-1.738
	c-0.806-0.423-1.611-0.843-2.414-1.271c-0.14-0.075-0.254-0.073-0.396,0.001c-1.864,0.984-3.73,1.963-5.598,2.944
	c-0.052,0.028-0.107,0.056-0.161,0.083c-0.151,0.076-0.299,0.083-0.438-0.02c-0.146-0.107-0.184-0.258-0.153-0.431
	c0.111-0.637,0.221-1.272,0.33-1.91C4.94,16.364,5.2,14.852,5.462,13.34c0.022-0.125-0.019-0.214-0.109-0.303
	c-1.488-1.446-2.975-2.895-4.459-4.342c-0.116-0.112-0.23-0.227-0.345-0.34V8.031z"/>
</svg>
