<?xml version="1.0" encoding="utf-8"?>
<!-- Generator: Adobe Illustrator 16.0.3, SVG Export Plug-In . SVG Version: 6.00 Build 0)  -->
<!DOCTYPE svg PUBLIC "-//W3C//DTD SVG 1.1//EN" "http://www.w3.org/Graphics/SVG/1.1/DTD/svg11.dtd">
<svg version="1.1" id="Capa_1" xmlns="http://www.w3.org/2000/svg" xmlns:xlink="http://www.w3.org/1999/xlink" x="0px" y="0px"
	 width="24.042px" height="13.225px" viewBox="0 0 24.042 13.225" enable-background="new 0 0 24.042 13.225" xml:space="preserve">
<path fill="#111111" d="M18.787,0.46c1.076,0.027,0.843-0.201,1.183,0.896c1.125,3.635,2.239,7.273,3.358,10.908
	c0.149,0.489,0.149,0.493-0.366,0.494c-0.275,0-0.553-0.023-0.826,0.005c-0.311,0.032-0.459-0.091-0.546-0.381
	c-0.223-0.739-0.465-1.473-0.702-2.207c-0.932-2.886-1.864-5.771-2.799-8.656c-0.074-0.232-0.15-0.462-0.226-0.692
	c-0.079-0.241-0.035-0.388,0.262-0.37C18.346,0.47,18.566,0.46,18.787,0.46"/>
<path fill="none" stroke="#111111" stroke-width="0.5" stroke-miterlimit="10" d="M18.787,0.46c1.076,0.027,0.843-0.201,1.183,0.896
	c1.125,3.635,2.239,7.273,3.358,10.908c0.149,0.489,0.149,0.493-0.366,0.494c-0.275,0-0.553-0.023-0.826,0.005
	c-0.311,0.032-0.459-0.091-0.546-0.381c-0.223-0.739-0.465-1.473-0.702-2.207c-0.932-2.886-1.864-5.771-2.799-8.656
	c-0.074-0.232-0.15-0.462-0.226-0.692c-0.079-0.241-0.035-0.388,0.262-0.37C18.346,0.47,18.566,0.46,18.787,0.46z"/>
<path fill="#111111" d="M15.441,0.46c0.209,0,0.42-0.004,0.629,0.001c0.323,0.007,0.372,0.074,0.272,0.383
	c-0.293,0.915-0.59,1.827-0.885,2.74c-0.94,2.917-1.885,5.833-2.817,8.753c-0.098,0.307-0.237,0.463-0.58,0.427
	c-0.295-0.03-0.596-0.004-0.895-0.006c-0.403-0.002-0.415-0.008-0.303-0.382c0.432-1.425,0.866-2.849,1.303-4.272
	c0.731-2.382,1.466-4.763,2.199-7.144c0.154-0.5,0.154-0.5,0.678-0.5C15.176,0.459,15.309,0.46,15.441,0.46"/>
<path fill="none" stroke="#111111" stroke-width="0.5" stroke-miterlimit="10" d="M15.441,0.46c0.209,0,0.42-0.004,0.629,0.001
	c0.323,0.007,0.372,0.074,0.272,0.383c-0.293,0.915-0.59,1.827-0.885,2.74c-0.94,2.917-1.885,5.833-2.817,8.753
	c-0.098,0.307-0.237,0.463-0.58,0.427c-0.295-0.03-0.596-0.004-0.895-0.006c-0.403-0.002-0.415-0.008-0.303-0.382
	c0.432-1.425,0.866-2.849,1.303-4.272c0.731-2.382,1.466-4.763,2.199-7.144c0.154-0.5,0.154-0.5,0.678-0.5
	C15.176,0.459,15.309,0.46,15.441,0.46z"/>
<path fill="#111111" d="M8.514,12.759H8.148c-0.56-0.001-0.554,0.001-0.393-0.52C8.729,9.076,9.7,5.913,10.673,2.75
	c0.201-0.653,0.408-1.306,0.6-1.96c0.07-0.238,0.194-0.346,0.45-0.335c0.397,0.016,0.795,0.002,1.193,0.006
	c0.352,0.003,0.391,0.054,0.282,0.391c-0.405,1.261-0.814,2.52-1.222,3.778c-0.708,2.193-1.416,4.387-2.123,6.58
	c-0.125,0.389-0.26,0.774-0.367,1.167c-0.079,0.291-0.23,0.432-0.543,0.385C8.803,12.739,8.657,12.759,8.514,12.759"/>
<path fill="none" stroke="#111111" stroke-width="0.5" stroke-miterlimit="10" d="M8.514,12.759H8.148
	c-0.56-0.001-0.554,0.001-0.393-0.52C8.729,9.076,9.7,5.913,10.673,2.75c0.201-0.653,0.408-1.306,0.6-1.96
	c0.07-0.238,0.194-0.346,0.45-0.335c0.397,0.016,0.795,0.002,1.193,0.006c0.352,0.003,0.391,0.054,0.282,0.391
	c-0.405,1.261-0.814,2.52-1.222,3.778c-0.708,2.193-1.416,4.387-2.123,6.58c-0.125,0.389-0.26,0.774-0.367,1.167
	c-0.079,0.291-0.23,0.432-0.543,0.385C8.803,12.739,8.657,12.759,8.514,12.759z"/>
<path fill="#111111" d="M1.551,0.46c0.923,0,0.929-0.002,1.229,0.97c1.119,3.615,2.234,7.232,3.349,10.848
	c0.014,0.042,0.018,0.088,0.035,0.128c0.11,0.254,0.043,0.369-0.249,0.355c-0.331-0.014-0.664-0.026-0.993,0.004
	c-0.32,0.029-0.454-0.118-0.54-0.396c-0.269-0.864-0.55-1.726-0.827-2.586c-0.943-2.931-1.888-5.86-2.831-8.79
	C0.555,0.471,0.564,0.461,1.12,0.46C1.264,0.459,1.407,0.46,1.551,0.46"/>
<path fill="none" stroke="#111111" stroke-width="0.5" stroke-miterlimit="10" d="M1.551,0.46c0.923,0,0.929-0.002,1.229,0.97
	c1.119,3.615,2.234,7.232,3.349,10.848c0.014,0.042,0.018,0.088,0.035,0.128c0.11,0.254,0.043,0.369-0.249,0.355
	c-0.331-0.014-0.664-0.026-0.993,0.004c-0.32,0.029-0.454-0.118-0.54-0.396c-0.269-0.864-0.55-1.726-0.827-2.586
	c-0.943-2.931-1.888-5.86-2.831-8.79C0.555,0.471,0.564,0.461,1.12,0.46C1.264,0.459,1.407,0.46,1.551,0.46z"/>
</svg>
