<?xml version="1.0" encoding="utf-8"?>
<!-- Generator: Adobe Illustrator 16.0.3, SVG Export Plug-In . SVG Version: 6.00 Build 0)  -->
<!DOCTYPE svg PUBLIC "-//W3C//DTD SVG 1.1//EN" "http://www.w3.org/Graphics/SVG/1.1/DTD/svg11.dtd">
<svg version="1.1" id="Capa_1" xmlns="http://www.w3.org/2000/svg" xmlns:xlink="http://www.w3.org/1999/xlink" x="0px" y="0px"
	 width="22.955px" height="17.91px" viewBox="0 0 22.955 17.91" enable-background="new 0 0 22.955 17.91" xml:space="preserve">
<path fill="#111111" d="M0.364,10.296c0.41-0.288,0.88-0.433,1.354-0.567c0.146-0.041,0.23-0.113,0.235-0.265
	C1.964,9.03,1.993,8.596,1.868,8.171c-0.11-0.38-0.299-0.688-0.706-0.813C1.039,7.321,0.923,7.257,0.823,7.171
	c-0.204-0.176-0.162-0.419,0.09-0.504c0.226-0.076,0.457-0.141,0.685-0.208C1.702,6.427,1.75,6.39,1.655,6.284
	C1.264,5.84,1.132,5.293,1.054,4.729c-0.066-0.469-0.07-0.938,0.041-1.401c0.142-0.594,0.44-1.07,1.027-1.311
	c0.263-0.109,0.552-0.111,0.83-0.149c1.638-0.233,3.277-0.46,4.916-0.688c1.824-0.252,3.649-0.503,5.475-0.754
	c0.215-0.029,0.434-0.041,0.643-0.094c0.417-0.104,0.806-0.027,1.208,0.097c2.24,0.687,4.483,1.355,6.726,2.034
	c0.145,0.043,0.308,0.065,0.333,0.26c0.025,0.204-0.121,0.294-0.265,0.382c-0.031,0.019-0.062,0.041-0.096,0.051
	c-0.648,0.183-0.824,0.699-0.886,1.279C20.975,4.715,20.999,5,21.001,5.281c0.001,0.146,0.067,0.234,0.22,0.277
	c0.256,0.073,0.508,0.164,0.76,0.254c0.171,0.061,0.337,0.135,0.484,0.241c0.071,0.05,0.148,0.109,0.121,0.21
	c-0.021,0.089-0.104,0.115-0.182,0.136c-0.259,0.064-0.519,0.127-0.778,0.189c-0.099,0.025-0.162,0.054-0.081,0.173
	c0.327,0.481,0.408,1.03,0.396,1.595c-0.008,0.36-0.048,0.722-0.142,1.072c-0.128,0.492-0.333,0.941-0.767,1.269
	c0.111,0.081,0.228,0.09,0.333,0.128c0.249,0.092,0.297,0.297,0.114,0.486c-0.083,0.085-0.181,0.152-0.293,0.184
	c-0.557,0.16-0.75,0.593-0.835,1.104c-0.06,0.359-0.056,0.72-0.014,1.082c0.016,0.129,0.087,0.167,0.188,0.196
	c0.376,0.11,0.749,0.226,1.1,0.403c0.126,0.063,0.302,0.123,0.291,0.286c-0.011,0.186-0.213,0.167-0.345,0.199
	c-3.434,0.835-6.87,1.665-10.306,2.498c-0.469,0.114-0.942,0.223-1.412,0.341c-0.131,0.034-0.252,0.024-0.381-0.017
	c-2.475-0.808-4.937-1.654-7.431-2.398c-1.063-0.316-1.48-1.009-1.643-1.99c-0.01-0.057-0.024-0.113-0.035-0.17v-1.171
	c0.1-0.434,0.236-0.85,0.572-1.18c-0.206-0.1-0.418-0.076-0.572-0.21V10.296z M21.189,8.336c0.015-0.198-0.01-0.421-0.06-0.64
	c-0.123-0.546-0.425-0.716-0.956-0.544c-2.472,0.807-4.944,1.616-7.418,2.419c-0.163,0.055-0.235,0.121-0.226,0.304
	c0.036,0.743,0.061,1.486,0.083,2.23c0.004,0.145,0.068,0.153,0.178,0.121c0.236-0.068,0.471-0.136,0.709-0.202
	c2.253-0.633,4.504-1.272,6.763-1.888c0.435-0.118,0.667-0.372,0.791-0.769C21.155,9.042,21.197,8.705,21.189,8.336 M9.733,14.446
	c0-0.109,0.01-0.203,0.003-0.325c-0.013-0.237-0.061-0.341-0.289-0.413c-2.482-0.8-4.963-1.605-7.44-2.425
	c-0.412-0.138-0.684,0.091-0.796,0.378c-0.089,0.227-0.116,0.465-0.119,0.701c-0.009,0.508,0.018,1.013,0.264,1.476
	c0.11,0.207,0.269,0.351,0.502,0.414c2.52,0.703,5.037,1.407,7.555,2.112c0.224,0.063,0.266,0.037,0.267-0.185 M1.763,4.191
	c0.008,0.45,0.044,0.896,0.263,1.304c0.113,0.212,0.274,0.367,0.515,0.434C3.78,6.272,5.02,6.617,6.259,6.964
	c1.288,0.36,2.576,0.723,3.864,1.081c0.101,0.029,0.213,0.094,0.218-0.104c0.023-0.745,0.05-1.488,0.084-2.232
	c0.007-0.168-0.053-0.247-0.21-0.296C9.601,5.219,8.989,5.017,8.377,4.817c-1.89-0.615-3.78-1.232-5.671-1.846
	c-0.432-0.141-0.7-0.002-0.842,0.427C1.78,3.655,1.753,3.921,1.763,4.191 M10.833,7.469c0,0.165,0.01,0.281-0.002,0.396
	c-0.02,0.19,0.041,0.241,0.23,0.189c0.446-0.122,0.897-0.227,1.346-0.339c2.629-0.654,5.26-1.31,7.891-1.958
	c0.189-0.046,0.28-0.101,0.246-0.326c-0.091-0.615-0.058-1.227,0.167-1.814c0.043-0.113-0.007-0.124-0.104-0.104
	c-0.311,0.066-0.623,0.129-0.933,0.193c-2.832,0.58-5.662,1.164-8.494,1.74c-0.204,0.041-0.301,0.12-0.298,0.335
	C10.893,6.362,10.864,6.94,10.833,7.469 M12.069,11.685c0-0.564-0.007-1.128,0.003-1.691c0.005-0.235-0.079-0.339-0.319-0.387
	C9.642,9.182,7.535,8.745,5.426,8.312C4.414,8.104,3.402,7.896,2.39,7.688C2.322,7.675,2.179,7.6,2.245,7.78
	C2.46,8.364,2.501,8.966,2.412,9.573C2.377,9.809,2.468,9.878,2.679,9.93c2.959,0.729,5.919,1.467,8.877,2.203
	C12.123,12.274,12.122,12.275,12.069,11.685 M10.153,16.129c-0.014,0.311-0.013,0.313,0.211,0.258
	c3.093-0.771,6.185-1.542,9.28-2.309c0.191-0.047,0.247-0.113,0.224-0.324c-0.061-0.583-0.073-1.172,0.142-1.734
	c0.067-0.175,0.021-0.197-0.148-0.162c-1.471,0.306-2.937,0.65-4.418,0.894c-1.115,0.182-2.16,0.648-3.304,0.708
	c-0.571,0.028-1.133,0.219-1.7,0.332c-0.133,0.027-0.214,0.07-0.217,0.235C10.208,14.728,10.177,15.427,10.153,16.129"/>
</svg>
