<?xml version="1.0" encoding="utf-8"?>
<!-- Generator: Adobe Illustrator 16.0.3, SVG Export Plug-In . SVG Version: 6.00 Build 0)  -->
<!DOCTYPE svg PUBLIC "-//W3C//DTD SVG 1.1//EN" "http://www.w3.org/Graphics/SVG/1.1/DTD/svg11.dtd">
<svg version="1.1" id="Capa_1" xmlns="http://www.w3.org/2000/svg" xmlns:xlink="http://www.w3.org/1999/xlink" x="0px" y="0px"
	 width="23.871px" height="16.722px" viewBox="0 0 23.871 16.722" enable-background="new 0 0 23.871 16.722" xml:space="preserve">
<path fill="#111111" d="M23.067,8.52c-0.072,0.079-0.14,0.16-0.215,0.234c-1.645,1.646-3.291,3.292-4.937,4.937
	c-0.046,0.046-0.093,0.095-0.144,0.137c-0.186,0.149-0.361,0.148-0.537-0.015c-0.179-0.167-0.351-0.343-0.521-0.519
	c-0.2-0.209-0.2-0.397,0.007-0.607c0.405-0.411,0.815-0.818,1.223-1.226c0.98-0.979,1.958-1.962,2.943-2.936
	c0.131-0.129,0.127-0.202-0.001-0.329c-1.365-1.355-2.723-2.717-4.082-4.076c-0.319-0.319-0.32-0.464-0.004-0.779
	c0.145-0.146,0.286-0.294,0.437-0.435c0.175-0.163,0.348-0.165,0.536-0.014c0.051,0.042,0.098,0.091,0.144,0.136
	c1.759,1.759,3.142,3.141,4.937,4.938c0.075,0.075,0.143,0.156,0.215,0.234V8.52z"/>
<path fill="none" stroke="#111111" stroke-miterlimit="10" d="M23.067,8.52c-0.072,0.079-0.14,0.16-0.215,0.234
	c-1.645,1.646-3.291,3.292-4.937,4.937c-0.046,0.046-0.093,0.095-0.144,0.137c-0.186,0.149-0.361,0.148-0.537-0.015
	c-0.179-0.167-0.351-0.343-0.521-0.519c-0.2-0.209-0.2-0.397,0.007-0.607c0.405-0.411,0.815-0.818,1.223-1.226
	c0.98-0.979,1.958-1.962,2.943-2.936c0.131-0.129,0.127-0.202-0.001-0.329c-1.365-1.355-2.723-2.717-4.082-4.076
	c-0.319-0.319-0.32-0.464-0.004-0.779c0.145-0.146,0.286-0.294,0.437-0.435c0.175-0.163,0.348-0.165,0.536-0.014
	c0.051,0.042,0.098,0.091,0.144,0.136c1.759,1.759,3.142,3.141,4.937,4.938c0.075,0.075,0.143,0.156,0.215,0.234V8.52z"/>
<path fill="#111111" d="M10.157,16.013c-0.247-0.059-0.542-0.118-0.813-0.239c-0.172-0.077-0.226-0.245-0.166-0.459
	c0.179-0.638,0.363-1.274,0.547-1.911c1.18-4.084,2.361-8.17,3.541-12.256c0.126-0.436,0.256-0.508,0.699-0.387
	c0.14,0.039,0.281,0.075,0.421,0.116c0.31,0.09,0.409,0.257,0.32,0.566c-0.334,1.172-0.673,2.343-1.012,3.514l-3.06,10.597
	C10.531,15.906,10.429,16.016,10.157,16.013"/>
<path fill="none" stroke="#111111" stroke-miterlimit="10" d="M10.157,16.013c-0.247-0.059-0.542-0.118-0.813-0.239
	c-0.172-0.077-0.226-0.245-0.166-0.459c0.179-0.638,0.363-1.274,0.547-1.911c1.18-4.084,2.361-8.17,3.541-12.256
	c0.126-0.436,0.256-0.508,0.699-0.387c0.14,0.039,0.281,0.075,0.421,0.116c0.31,0.09,0.409,0.257,0.32,0.566
	c-0.334,1.172-0.673,2.343-1.012,3.514l-3.06,10.597C10.531,15.906,10.429,16.016,10.157,16.013z"/>
<path fill="#111111" d="M7.322,3.719c0.006,0.155-0.088,0.257-0.188,0.357C6.308,4.9,5.483,5.726,4.658,6.551
	C4.11,7.101,3.565,7.653,3.009,8.194C2.881,8.319,2.873,8.39,3.006,8.524c1.355,1.344,2.703,2.697,4.054,4.047
	c0.052,0.052,0.105,0.101,0.153,0.157c0.151,0.178,0.154,0.361-0.006,0.535c-0.176,0.189-0.359,0.373-0.548,0.549
	c-0.175,0.164-0.35,0.164-0.535,0.016c-0.046-0.038-0.089-0.081-0.13-0.124C4.346,12.06,2.7,10.414,1.055,8.768
	C0.72,8.433,0.72,8.288,1.052,7.957C2.697,6.31,4.343,4.664,5.989,3.019C6.301,2.707,6.46,2.706,6.77,3.015
	c0.141,0.141,0.282,0.282,0.421,0.424C7.268,3.516,7.321,3.604,7.322,3.719"/>
<path fill="none" stroke="#111111" stroke-miterlimit="10" d="M7.322,3.719c0.006,0.155-0.088,0.257-0.188,0.357
	C6.308,4.9,5.483,5.726,4.658,6.551C4.11,7.101,3.565,7.653,3.009,8.194C2.881,8.319,2.873,8.39,3.006,8.524
	c1.355,1.344,2.703,2.697,4.054,4.047c0.052,0.052,0.105,0.101,0.153,0.157c0.151,0.178,0.154,0.361-0.006,0.535
	c-0.176,0.189-0.359,0.373-0.548,0.549c-0.175,0.164-0.35,0.164-0.535,0.016c-0.046-0.038-0.089-0.081-0.13-0.124
	C4.346,12.06,2.7,10.414,1.055,8.768C0.72,8.433,0.72,8.288,1.052,7.957C2.697,6.31,4.343,4.664,5.989,3.019
	C6.301,2.707,6.46,2.706,6.77,3.015c0.141,0.141,0.282,0.282,0.421,0.424C7.268,3.516,7.321,3.604,7.322,3.719z"/>
</svg>
