<?xml version="1.0" encoding="utf-8"?>
<!-- Generator: Adobe Illustrator 16.0.3, SVG Export Plug-In . SVG Version: 6.00 Build 0)  -->
<!DOCTYPE svg PUBLIC "-//W3C//DTD SVG 1.1//EN" "http://www.w3.org/Graphics/SVG/1.1/DTD/svg11.dtd">
<svg version="1.1" id="Capa_1" xmlns="http://www.w3.org/2000/svg" xmlns:xlink="http://www.w3.org/1999/xlink" x="0px" y="0px"
	 width="19.521px" height="19.517px" viewBox="0 0 19.521 19.517" enable-background="new 0 0 19.521 19.517" xml:space="preserve">
<path fill="#111111" d="M0.231,3.404V1.937c0.131-0.264,0.349-0.375,0.643-0.372C1.459,1.57,2.048,1.573,2.635,1.564
	C3.244,1.555,3.21,1.694,3.176,0.996C3.159,0.679,3.232,0.407,3.523,0.231h12.453c0.282,0.171,0.368,0.433,0.346,0.747
	c-0.008,0.105-0.011,0.21-0.013,0.316c-0.004,0.265,0.003,0.272,0.263,0.272c0.7,0.001,1.4-0.003,2.101,0.002
	c0.392,0.001,0.601,0.229,0.612,0.619c0.027,0.976-0.073,1.939-0.284,2.891c-0.378,1.716-1.049,3.298-2.219,4.633
	c-0.969,1.108-2.146,1.848-3.646,1.996c-0.077,0.008-0.138,0.037-0.189,0.092c-0.296,0.313-0.621,0.593-0.98,0.833
	c-0.08,0.052-0.114,0.124-0.113,0.216c0,0.7,0,1.401-0.001,2.103c0,0.137,0.071,0.184,0.2,0.18c0.229-0.004,0.462-0.002,0.694,0
	c1.05,0.006,1.912,0.768,2.06,1.807c0.042,0.29,0.033,0.58,0.025,0.87c-0.004,0.188,0.036,0.299,0.235,0.367
	c0.263,0.09,0.401,0.384,0.345,0.643c-0.063,0.296-0.268,0.464-0.572,0.466c-0.14,0.002-0.277,0.001-0.417,0.001
	c-3.232,0-6.464,0-9.696,0.001c-0.153,0-0.3-0.006-0.429-0.111c-0.357-0.292-0.276-0.847,0.164-1.013
	c0.163-0.062,0.211-0.147,0.204-0.306c-0.01-0.218-0.007-0.436,0-0.655c0.03-1.034,0.73-1.851,1.745-2.041
	c0.334-0.062,0.673-0.024,1.009-0.027c0.156-0.001,0.23-0.049,0.229-0.215c-0.004-0.68-0.002-1.362,0-2.042
	c0-0.117-0.042-0.198-0.143-0.264c-0.216-0.141-0.436-0.285-0.604-0.479c-0.265-0.305-0.584-0.432-0.982-0.498
	c-1.315-0.222-2.352-0.944-3.212-1.931c-1.085-1.243-1.736-2.705-2.134-4.29C0.408,4.752,0.319,4.079,0.231,3.404 M14.157,10.174
	c0.012,0.01,0.024,0.02,0.038,0.03c0.064-0.03,0.13-0.056,0.194-0.09c0.794-0.409,1.415-1.012,1.922-1.734
	c1.146-1.634,1.65-3.477,1.771-5.445c0.009-0.128-0.052-0.162-0.162-0.161c-0.502,0.001-1.005,0.001-1.506,0
	c-0.12,0-0.178,0.047-0.189,0.174c-0.058,0.691-0.148,1.377-0.274,2.058c-0.313,1.69-0.804,3.322-1.621,4.843
	C14.272,9.957,14.214,10.066,14.157,10.174 M5.344,10.171c-0.063-0.115-0.125-0.229-0.187-0.344c-1.131-2.136-1.65-4.441-1.88-6.826
	c-0.016-0.169-0.07-0.232-0.238-0.23c-0.475,0.006-0.95,0.005-1.426,0C1.458,2.77,1.409,2.817,1.417,2.979
	c0.06,1.027,0.243,2.03,0.571,3.005c0.43,1.275,1.056,2.433,2.048,3.368C4.412,9.708,4.832,10,5.344,10.171"/>
</svg>
