<?xml version="1.0" encoding="utf-8"?>
<!-- Generator: Adobe Illustrator 16.0.3, SVG Export Plug-In . SVG Version: 6.00 Build 0)  -->
<!DOCTYPE svg PUBLIC "-//W3C//DTD SVG 1.1//EN" "http://www.w3.org/Graphics/SVG/1.1/DTD/svg11.dtd">
<svg version="1.1" id="Capa_1" xmlns="http://www.w3.org/2000/svg" xmlns:xlink="http://www.w3.org/1999/xlink" x="0px" y="0px"
	 width="18.849px" height="16.431px" viewBox="0 0 18.849 16.431" enable-background="new 0 0 18.849 16.431" xml:space="preserve">
<path fill="#111111" d="M9.413,16.213c-2.328,0-4.656,0.001-6.983,0c-0.851,0-1.447-0.422-1.873-1.131
	c-0.229-0.382-0.301-0.805-0.303-1.236c-0.007-2.609-0.006-5.22-0.001-7.83c0.001-0.642,0.19-1.23,0.645-1.695
	c0.458-0.467,1.031-0.7,1.69-0.701c1.037,0,2.074-0.004,3.111,0.008C5.921,3.63,5.971,3.551,5.968,3.345
	C5.957,2.703,5.975,2.06,5.96,1.419C5.946,0.799,6.435,0.204,7.15,0.218c1.523,0.027,3.047,0.008,4.571,0.008
	c0.706,0.001,1.163,0.456,1.166,1.165c0.003,0.664,0.007,1.326-0.003,1.99c-0.002,0.182,0.052,0.246,0.24,0.245
	c1.015-0.009,2.032,0.004,3.047-0.007c1.402-0.017,2.428,0.986,2.428,2.387c0,2.652,0.001,5.304-0.001,7.957
	c-0.001,1.056-0.732,1.984-1.738,2.224c-0.126,0.03-0.252,0.026-0.378,0.026C14.125,16.214,11.769,16.213,9.413,16.213 M9.432,3.622
	c0.669,0,1.34-0.004,2.01,0.003c0.168,0.001,0.238-0.046,0.235-0.228c-0.01-0.578-0.009-1.157,0-1.735
	c0.003-0.181-0.07-0.229-0.238-0.228c-1.334,0.005-2.667,0.005-4,0C7.268,1.434,7.202,1.483,7.205,1.661
	c0.008,0.572,0.011,1.145-0.001,1.715C7.2,3.578,7.278,3.628,7.464,3.625C8.12,3.616,8.776,3.622,9.432,3.622"/>
</svg>
